<?xml version="1.0" encoding="utf-8"?>
<!-- Generator: Adobe Illustrator 21.0.2, SVG Export Plug-In . SVG Version: 6.00 Build 0)  -->
<svg version="1.1" xmlns="http://www.w3.org/2000/svg" xmlns:xlink="http://www.w3.org/1999/xlink" x="0px" y="0px"
	 viewBox="0 0 1920 1919" style="enable-background:new 0 0 1920 1919;" xml:space="preserve">
<style type="text/css">
	.st0{display:none;}
	.st1{display:inline;}
	.st2{display:inline;fill:#FFFFFF;}
	.st3{font-family:'LetterGothicStd-Bold';}
	.st4{font-size:40px;}
	.st5{font-size:38px;}
	.st6{font-size:20px;}
	.st7{fill:none;stroke:#FFFFFF;stroke-width:4;stroke-miterlimit:10;}
	.st8{fill:#FFFFFF;stroke:#FFFFFF;stroke-miterlimit:10;}
	.st9{fill:none;stroke:#FFFFFF;stroke-width:2;stroke-miterlimit:10;}
	.st10{fill:#00A99D;}
	.st11{fill:#FFFFFF;}
	.st12{fill:none;}
	.st13{display:inline;fill:none;}
	.st14{font-family:'MyriadPro-Regular';}
	.st15{font-size:24px;}
	.st16{display:inline;fill:none;stroke:#FFFFFF;stroke-width:4;stroke-miterlimit:10;}
	.st17{display:inline;fill:none;stroke:#FFFFFF;stroke-width:2;stroke-miterlimit:10;}
	.st18{font-size:21.8162px;}
</style>
<g id="fondo" class="st0">
	
		<image style="display:inline;overflow:visible;" width="1922" height="1082" xlink:href="977607BB53E42D34.png"  transform="matrix(1 0 0 1 -1 419)">
	</image>
</g>
<g id="Layer_10">
	<g>
		<defs>
			
				<rect id="SVGID_1_" x="-39.7" y="-26.1" transform="matrix(3.656742e-03 1 -1 3.656742e-03 1890.9263 20.8673)" width="1949.3" height="1970.9"/>
		</defs>
		<clipPath id="SVGID_2_">
			<use xlink:href="#SVGID_1_"  style="overflow:visible;"/>
		</clipPath>
		<g style="clip-path:url(#SVGID_2_);">
			
				<image style="overflow:visible;" width="4073" height="5040" xlink:href="977607BB53E42D35.png"  transform="matrix(1 0 0 1 -60 -3102)">
			</image>
		</g>
	</g>
</g>
<g id="fondo2" class="st0">
	<g class="st1">
		<rect x="0.5" y="420.5" width="1919" height="1079"/>
		<path d="M1919,421v1078H1V421H1919 M1920,420H0v1080h1920V420L1920,420z"/>
	</g>
</g>
<g id="titulo" class="st0">
	<text transform="matrix(1 0 0 1 732.0039 503.1118)" class="st2 st3 st4">EL PODER DEL SONIDO</text>
	<text transform="matrix(1 0 0 1 224.6313 970.8679)" class="st2 st3 st5">¡MARAVILLAME!</text>
	<text transform="matrix(1 0 0 1 732.0037 972.7681)" class="st2 st3 st5">¿QUÉ COLOR ERES HOY?</text>
	<text transform="matrix(1 0 0 1 1463.0674 970.8682)" class="st2 st3 st5">UNIVERSO</text>
	<text transform="matrix(1 0 0 1 792.0024 549.6104)" class="st2 st3 st6">EL UNIVERSO DE TAPADO VARGAS</text>
</g>
<g id="menu" class="st0">
	<g class="st1">
		<rect x="33" y="466" class="st7" width="269" height="269"/>
		<text transform="matrix(1 0 0 1 125.7534 503.5972)" class="st8 st3 st6">INICIO</text>
		<line class="st9" x1="55" y1="527" x2="269" y2="527"/>
		<line class="st9" x1="55" y1="596" x2="269" y2="596"/>
		<line class="st9" x1="55" y1="667" x2="269" y2="667"/>
		<text transform="matrix(1 0 0 1 95.104 570.8311)" class="st10 st3 st6">SOBRE TAPADO</text>
		<text transform="matrix(1 0 0 1 110.6104 640.6494)" class="st11 st3 st6">SERVICIOS</text>
		<text transform="matrix(1 0 0 1 111.5713 704.7144)" class="st11 st3 st6">CONTACTO</text>
	</g>
</g>
<g id="sobre_tapado" class="st0">
	<text transform="matrix(1 0 0 1 732.0039 503.1118)" class="st2 st3 st4">EL PODER DEL SONIDO</text>
	<text transform="matrix(1 0 0 1 792.0024 549.6104)" class="st2 st3 st6">EL UNIVERSO DE TAPADO VARGAS</text>
	<text transform="matrix(1 0 0 1 845.0024 600.6104)" class="st2 st3 st6">SOBRE TAPADO VARGAS</text>
	<g class="st1">
		<rect x="33" y="466" class="st7" width="269" height="269"/>
		<text transform="matrix(1 0 0 1 125.7534 503.5972)" class="st8 st3 st6">INICIO</text>
		<line class="st9" x1="55" y1="527" x2="269" y2="527"/>
		<line class="st9" x1="55" y1="596" x2="269" y2="596"/>
		<line class="st9" x1="55" y1="667" x2="269" y2="667"/>
		<text transform="matrix(1 0 0 1 95.104 570.8311)" class="st10 st3 st6">SOBRE TAPADO</text>
		<text transform="matrix(1 0 0 1 110.6104 640.6494)" class="st11 st3 st6">SERVICIOS</text>
		<text transform="matrix(1 0 0 1 111.5713 704.7144)" class="st11 st3 st6">CONTACTO</text>
	</g>
	<g id="instagram_1_" class="st1">
		<path class="st9" d="M1691.6,464.2c0-13.8,11.2-25,25-25c13.5,0,25,10.7,25,25c0,13.9-11.1,25-25,25
			C1702.4,489.1,1691.7,477.6,1691.6,464.2z M1731.4,464.1c0-3,0-5.9,0-8.9c0-3.4-2.4-5.9-5.8-5.9c-6,0-12,0-18,0
			c-3.3,0-5.8,2.5-5.8,5.8c0,6,0,12,0,18c0,3.4,2.5,5.8,5.9,5.8c5.9,0,11.9,0,17.8,0c3.4,0,5.9-2.5,5.9-5.9
			C1731.4,470.1,1731.4,467.1,1731.4,464.1z"/>
		<path class="st12" d="M1731.4,464.1c0,3,0,5.9,0,8.9c0,3.4-2.5,5.9-5.9,5.9c-5.9,0-11.9,0-17.8,0c-3.4,0-5.9-2.4-5.9-5.8
			c0-6,0-12,0-18c0-3.3,2.5-5.8,5.8-5.8c6,0,12,0,18,0c3.4,0,5.8,2.5,5.8,5.9C1731.4,458.2,1731.4,461.2,1731.4,464.1z
			 M1704.7,461.1c0,0.2,0,0.4,0,0.6c0,3.8,0,7.5,0,11.3c0,1.8,1.2,3,3,3c5.9,0,11.8,0,17.8,0c1.8,0,3-1.2,3-3c0-3.8,0-7.6,0-11.4
			c0-0.2,0-0.3,0-0.5c-1.5,0-2.9,0-4.3,0c1.1,3.7,0.4,6.9-2.6,9.4c-2.6,2.1-5.7,2.4-8.6,0.8c-4.1-2.2-5.2-5.8-3.9-10.2
			C1707.6,461.1,1706.2,461.1,1704.7,461.1z M1711.4,464.2c0,2.9,2.3,5.2,5.2,5.2c2.9,0,5.2-2.3,5.2-5.2c0-2.9-2.4-5.2-5.2-5.2
			C1713.8,459,1711.4,461.3,1711.4,464.2z M1723,452.8c0,1.7,0,3.3,0,4.9c1.7,0,3.3,0,4.9,0c0-1.7,0-3.3,0-4.9
			C1726.3,452.8,1724.7,452.8,1723,452.8z"/>
		<path class="st11" d="M1704.7,461.1c1.5,0,2.9,0,4.3,0c-1.2,4.4-0.2,8,3.9,10.2c2.9,1.6,6,1.3,8.6-0.8c3.1-2.4,3.8-5.6,2.6-9.4
			c1.4,0,2.8,0,4.3,0c0,0.2,0,0.4,0,0.5c0,3.8,0,7.6,0,11.4c0,1.8-1.2,3-3,3c-5.9,0-11.8,0-17.8,0c-1.9,0-3-1.2-3-3
			c0-3.8,0-7.5,0-11.3C1704.7,461.6,1704.7,461.4,1704.7,461.1z"/>
		<path class="st11" d="M1711.4,464.2c0-2.9,2.3-5.2,5.2-5.2c2.9,0,5.2,2.4,5.2,5.2c0,2.9-2.4,5.2-5.2,5.2
			C1713.8,469.3,1711.4,467,1711.4,464.2z"/>
		<path class="st11" d="M1723,452.8c1.6,0,3.3,0,4.9,0c0,1.6,0,3.3,0,4.9c-1.6,0-3.3,0-4.9,0C1723,456.1,1723,454.5,1723,452.8z"/>
	</g>
	<g id="facebook_1_" class="st1">
		<path class="st9" d="M1794.8,439.1c13.5,0,25,10.7,25,25c0,13.9-11.1,25-25,25c-14.3,0-25-11.6-25-25.1
			C1769.8,450.3,1781,439.2,1794.8,439.1z M1801.6,449.5c-0.1,0-0.1-0.1-0.2-0.1c-1.7,0-3.4-0.1-5.1,0c-2.8,0.2-4.6,1.7-5.2,4.4
			c-0.2,0.7-0.2,1.5-0.2,2.3c0,0.7,0,1.4,0,2.2c-1,0-2,0-2.9,0c0,2,0,3.9,0,5.9c1,0,1.9,0,2.9,0c0,5,0,9.8,0,14.7c2,0,3.9,0,5.9,0
			c0-4.9,0-9.8,0-14.8c1.5,0,2.9,0,4.4,0c0.2-2,0.4-3.9,0.5-5.9c-1.6,0-3.1,0-4.7,0c0-0.1,0-0.2,0-0.3c0-0.7,0-1.5,0-2.2
			c0-0.9,0.5-1.3,1.4-1.3c0.8,0,1.6,0,2.4,0c0.3,0,0.5,0,0.8,0C1801.6,452.8,1801.6,451.1,1801.6,449.5z"/>
		<path class="st11" d="M1801.6,449.5c0,1.6,0,3.3,0,5c-0.3,0-0.5,0-0.8,0c-0.8,0-1.6,0-2.4,0c-0.9,0-1.3,0.5-1.4,1.3
			c0,0.7,0,1.4,0,2.2c0,0.1,0,0.1,0,0.3c1.5,0,3.1,0,4.7,0c-0.2,2-0.4,4-0.5,5.9c-1.5,0-2.9,0-4.4,0c0,4.9,0,9.8,0,14.8
			c-2,0-3.9,0-5.9,0c0-4.9,0-9.8,0-14.7c-1,0-1.9,0-2.9,0c0-2,0-3.9,0-5.9c0.9,0,1.9,0,2.9,0c0-0.8,0-1.5,0-2.2c0-0.8,0-1.5,0.2-2.3
			c0.6-2.6,2.4-4.2,5.2-4.4c1.7-0.1,3.4,0,5.1,0C1801.5,449.4,1801.5,449.5,1801.6,449.5z"/>
	</g>
	<g id="twitter_1_" class="st1">
		<path class="st11" d="M1872.9,438.1c14.3,0,26,11.7,26,26c0,14.3-11.7,26-26,26c-14.3,0-26-11.7-26-26
			C1846.9,449.8,1858.6,438.1,1872.9,438.1z M1848.9,464.2c0,13.2,10.7,24,24,24c13.3,0,24-10.8,24-24c0-13.3-10.7-23.9-24-23.9
			C1859.7,440.2,1848.9,450.9,1848.9,464.2z"/>
		<path class="st11" d="M1860,472.5c2.8,0.1,5.3-0.5,7.8-2.3c-1.2-0.1-2.2-0.4-3.1-1.1c-0.9-0.7-1.5-1.5-1.9-2.6c0.8,0,1.5,0,2.2,0
			c0,0,0-0.1,0-0.1c-2.6-0.8-4-2.5-4.2-5.2c0.8,0.2,1.5,0.4,2.2,0.6c0,0,0.1-0.1,0.1-0.1c-2.3-2-2.8-4.3-1.5-7.1
			c3,3.4,6.7,5.3,11.2,5.6c0-0.8-0.1-1.4,0-2.1c0.4-2.1,1.6-3.5,3.5-4.2c2-0.7,3.8-0.3,5.5,1c0.3,0.3,0.5,0.3,0.9,0.2
			c0.9-0.3,1.9-0.7,2.8-1c-0.4,1.1-1.1,2-2.1,2.7c0,0,0,0.1,0.1,0.1c0.9-0.2,1.8-0.5,2.7-0.7c-0.6,0.9-1.3,1.6-2.1,2.3
			c-0.3,0.3-0.5,0.5-0.5,1c0,7-4.6,13-11.3,14.8C1867.9,475.3,1863.8,474.8,1860,472.5z"/>
	</g>
	<g id="menu_2_" transform="translate(0,-952.36218)" class="st1">
		<path class="st11" d="M32.5,1393.4c-0.8,0-1.5,0.7-1.5,1.5c0,0.8,0.7,1.5,1.5,1.5h34c0.8,0,1.5-0.7,1.5-1.5c0-0.8-0.7-1.5-1.5-1.5
			H32.5z M32.5,1404.9c-0.8,0-1.5,0.7-1.5,1.5c0,0.8,0.7,1.5,1.5,1.5h34c0.8,0,1.5-0.7,1.5-1.5c0-0.8-0.7-1.5-1.5-1.5H32.5z
			 M32.5,1416.4c-0.8,0-1.5,0.7-1.5,1.5s0.7,1.5,1.5,1.5h34c0.8,0,1.5-0.7,1.5-1.5s-0.7-1.5-1.5-1.5H32.5z"/>
	</g>
	<rect x="353" y="989" class="st13" width="1214" height="400"/>
	<text transform="matrix(1 0 0 1 353 1006.04)" class="st1"><tspan x="0" y="0" class="st11 st14 st15">Carlos Vargas nació el 22 de enero de 1971 en San José. Cursó a partir de kínder en el Conservatorio de Castella, donde </tspan><tspan x="0" y="28.8" class="st11 st14 st15">estuvo expuesto a todas las artes. Aprendió a tocar varios instrumentos y en primer año del colegio entró a percusión </tspan><tspan x="0" y="57.6" class="st11 st14 st15">junto a su mejor amigo Carlomagno Vargas.</tspan><tspan x="0" y="115.2" class="st11 st14 st15">A la edad de 11 años sería miembro de la banda del Centro Interamericano de Estudios Instrumentales (CIDESIN), de la </tspan><tspan x="0" y="144" class="st11 st14 st15">OEA, junto a otros jóvenes de todo el país. Vargas fue seleccionado para tocar la percusión entre los alumnos del Castella.</tspan><tspan x="0" y="201.6" class="st11 st14 st15">En la escuela fue importante la influencia de su maestra Flor Porras, que lo motivó a conocer las artes. Más adelante rec</tspan><tspan x="1185.9" y="201.6" class="st11 st14 st15">-</tspan><tspan x="0" y="230.4" class="st11 st14 st15">biría lecciones de Roy Mora, Roberto Vargas, Manrique Méndez y Rodrigo Salas. Se graduó del Conservatorio en 1987.</tspan><tspan x="0" y="288" class="st11 st14 st15">En la universidad probó la carrera de Administración de Negocios, pero no le gustó. Comenzó a impartir clases en la pri</tspan><tspan x="1181.1" y="288" class="st11 st14 st15">-</tspan><tspan x="0" y="316.8" class="st11 st14 st15">maria del Castella, puesto que ocupó durante 7 años y que le enseñó acerca de la importancia de la educación.</tspan></text>
</g>
<g id="maravillame" class="st0">
	<rect x="240" y="1005" class="st16" width="269" height="269"/>
	<line class="st17" x1="262" y1="1223" x2="476" y2="1223"/>
	<text transform="matrix(0.9167 0 0 1 261.8052 1059.7168)" class="st1"><tspan x="0" y="0" class="st11 st3 st18">TAPADO TE SUGIERE </tspan><tspan x="0" y="46" class="st11 st3 st18">UN PLAYLIST PARA </tspan><tspan x="0" y="92" class="st11 st3 st18">EL DÍA DE HOY</tspan></text>
	<g class="st1">
		<path class="st11" d="M394.2,1265.7c-0.2-0.2-4.2-4.1-12.9-6.1c0.4-0.7,0.7-1.4,1-2.2h0.6c2,0,3.5-1.6,3.5-3.5s-1.6-3.5-3.5-3.5
			v1.8c1,0,1.8,0.8,1.8,1.8s-0.8,1.8-1.8,1.8h-0.2c0.1-0.6,0.2-1.2,0.2-1.8h-1.8c0,5.9-5.6,10.6-12.4,10.6
			c-6.8,0-12.4-4.8-12.4-10.6h-1.8c0,0.6,0.1,1.2,0.2,1.8h-0.2c-1,0-1.8-0.8-1.8-1.8s0.8-1.8,1.8-1.8v-1.8c-2,0-3.5,1.6-3.5,3.5
			s1.6,3.5,3.5,3.5h0.6c0.3,0.8,0.6,1.5,1,2.2c-8.7,2-12.7,5.9-12.9,6.1l1.3,1.3c0,0,4.1-4,12.7-5.8c2.6,3.1,6.8,5.1,11.5,5.1
			s8.9-2,11.5-5.1c8.6,1.8,12.7,5.7,12.7,5.8L394.2,1265.7z"/>
		<path class="st11" d="M368.8,1255.7c1.5,0,2.7-1.2,2.7-2.7v-3.5h-1.8v3.5c0,0.5-0.4,0.9-0.9,0.9c-0.5,0-0.9-0.4-0.9-0.9v-3.5h-1.8
			v3.5C366.1,1254.5,367.3,1255.7,368.8,1255.7z"/>
		<path class="st11" d="M359,1250.4c0,1.5,1.2,2.7,2.7,2.7c1.5,0,2.7-1.2,2.7-2.7c0-1.5-1.2-2.7-2.7-2.7
			C360.2,1247.7,359,1248.9,359,1250.4z M362.5,1250.4c0,0.5-0.4,0.9-0.9,0.9c-0.5,0-0.9-0.4-0.9-0.9c0-0.5,0.4-0.9,0.9-0.9
			C362.2,1249.5,362.5,1249.9,362.5,1250.4z"/>
		<path class="st11" d="M375.9,1253.1c1.5,0,2.7-1.2,2.7-2.7c0-1.5-1.2-2.7-2.7-2.7c-1.5,0-2.7,1.2-2.7,2.7
			C373.2,1251.9,374.4,1253.1,375.9,1253.1z M375.9,1249.5c0.5,0,0.9,0.4,0.9,0.9c0,0.5-0.4,0.9-0.9,0.9c-0.5,0-0.9-0.4-0.9-0.9
			C375,1249.9,375.4,1249.5,375.9,1249.5z"/>
		<path class="st11" d="M368.8,1263.7c2,0,3.5-1.6,3.5-3.5s-1.6-3.5-3.5-3.5s-3.5,1.6-3.5,3.5S366.8,1263.7,368.8,1263.7z
			 M368.8,1258.4c1,0,1.8,0.8,1.8,1.8c0,1-0.8,1.8-1.8,1.8c-1,0-1.8-0.8-1.8-1.8C367,1259.2,367.8,1258.4,368.8,1258.4z"/>
		<rect x="367.9" y="1230" class="st11" width="1.8" height="8.9"/>
		
			<rect x="357.7" y="1232.3" transform="matrix(0.7071 -0.7071 0.7071 0.7071 -769.4266 615.7452)" class="st11" width="1.8" height="8.8"/>
		
			<rect x="373.7" y="1235.8" transform="matrix(0.7071 -0.7071 0.7071 0.7071 -763.7101 629.5456)" class="st11" width="8.8" height="1.8"/>
	</g>
</g>
<g id="pregunta" class="st0">
	<rect x="826" y="1005" class="st16" width="269" height="269"/>
	<line class="st17" x1="848" y1="1223" x2="1062" y2="1223"/>
	<text transform="matrix(0.9167 0 0 1 854.8052 1060.7168)" class="st1"><tspan x="0" y="0" class="st11 st3 st18">PUEDES ELEGIR LA </tspan><tspan x="0" y="46" class="st11 st3 st18">TONALIDAD QUE MÁS </tspan><tspan x="0" y="92" class="st11 st3 st18">TE GUSTE Y JUNTO </tspan><tspan x="0" y="138" class="st11 st3 st18">A ELLA SU PLAYLIST</tspan></text>
	<path class="st2" d="M959.4,1235.7c0,1.7,1.2,3.1,2.8,3.4c1.9,0.4,3.7-0.9,4.1-2.8c0-0.2,0.1-0.4,0.1-0.7c0-1.7-1.2-3.1-2.8-3.4
		c-0.9-0.2-1.8,0-2.6,0.5c-0.8,0.5-1.3,1.3-1.5,2.2C959.4,1235.3,959.4,1235.5,959.4,1235.7z M961.8,1234.1c0.4-0.3,0.9-0.4,1.5-0.3
		c0.9,0.2,1.6,1,1.6,1.9c0,0.1,0,0.2,0,0.4c-0.2,1.1-1.2,1.7-2.3,1.5c-0.9-0.2-1.6-1-1.6-1.9c0-0.1,0-0.2,0-0.4
		C961,1234.8,961.3,1234.4,961.8,1234.1z M951.1,1237.8c0,0.2-0.1,0.4-0.1,0.7c0,1.7,1.2,3.1,2.8,3.4c0.9,0.2,1.8,0,2.6-0.5
		c0.8-0.5,1.3-1.3,1.5-2.2c0-0.2,0.1-0.4,0.1-0.7c0-1.7-1.2-3.1-2.8-3.4c-0.9-0.2-1.8,0-2.6,0.5
		C951.8,1236.1,951.3,1236.9,951.1,1237.8z M954.9,1236.6c0.9,0.2,1.6,1,1.6,1.9c0,0.1,0,0.2,0,0.4c-0.1,0.5-0.4,1-0.8,1.2
		c-0.4,0.3-0.9,0.4-1.5,0.3c-0.9-0.2-1.6-1-1.6-1.9c0-0.1,0-0.2,0-0.4c0.1-0.5,0.4-1,0.8-1.2
		C953.9,1236.6,954.4,1236.5,954.9,1236.6z M944.5,1243.8c0,0.2-0.1,0.4-0.1,0.7c0,1.7,1.2,3.1,2.8,3.4c0.9,0.2,1.8,0,2.6-0.5
		c0.8-0.5,1.3-1.3,1.5-2.2c0-0.2,0.1-0.4,0.1-0.7c0-1.7-1.2-3.1-2.8-3.4c-0.9-0.2-1.8,0-2.6,0.5
		C945.2,1242.1,944.6,1242.9,944.5,1243.8z M948.3,1242.6c0.9,0.2,1.6,1,1.6,1.9c0,0.1,0,0.2,0,0.4c-0.1,0.5-0.4,0.9-0.8,1.2
		c-0.4,0.3-0.9,0.4-1.5,0.3c-0.9-0.2-1.6-1-1.6-1.9c0-0.1,0-0.2,0-0.4c0.1-0.5,0.4-0.9,0.8-1.2
		C947.2,1242.6,947.8,1242.5,948.3,1242.6z M940.6,1251.7c0,0.2-0.1,0.4-0.1,0.7c0,1.7,1.2,3.1,2.8,3.4c0.9,0.2,1.8,0,2.6-0.5
		c0.8-0.5,1.3-1.3,1.5-2.2c0-0.2,0.1-0.4,0.1-0.7c0-1.7-1.2-3.1-2.8-3.4C942.7,1248.6,940.9,1249.8,940.6,1251.7z M944.3,1250.5
		c0.9,0.2,1.6,1,1.6,1.9c0,0.1,0,0.2,0,0.4c-0.1,0.5-0.4,1-0.8,1.2c-0.4,0.3-0.9,0.4-1.5,0.3c-0.9-0.2-1.6-1-1.6-1.9
		c0-0.1,0-0.2,0-0.4C942.3,1251,943.3,1250.3,944.3,1250.5z M957.9,1250.6c0,2.4,1.7,4.5,4.1,4.9c2.7,0.5,5.3-1.3,5.8-4
		c0.1-0.3,0.1-0.6,0.1-0.9c0-2.4-1.7-4.5-4.1-4.9c-2.7-0.5-5.3,1.3-5.8,4C958,1250,957.9,1250.3,957.9,1250.6z M963.6,1247.2
		c1.6,0.3,2.8,1.7,2.8,3.4c0,0.2,0,0.4-0.1,0.7c-0.4,1.9-2.2,3.1-4,2.7c-1.6-0.3-2.8-1.7-2.8-3.4c0-0.2,0-0.4,0.1-0.7
		C959.9,1248.1,961.7,1246.9,963.6,1247.2z M969.2,1261.6l-0.2,0.2v3.2l0.2,0.2c1.5,1.8,3.4,2.5,5.3,2c1.3-0.3,2.3-0.7,3.2-1
		c1.4-0.5,2.5-0.9,4.4-0.9l1.9,0l-1.4-1.4c-0.2-0.2-4.9-4.8-8.5-4.6C971.9,1259.6,970.2,1260.7,969.2,1261.6z M980.2,1263.9
		c-1.2,0.2-2.1,0.5-3.1,0.9c-0.8,0.3-1.8,0.7-3,1c-1.3,0.3-2.5-0.1-3.6-1.3v-2c0.8-0.7,2.1-1.5,3.7-1.6
		C976,1260.9,978.6,1262.6,980.2,1263.9z M968.3,1265v-3.1l-0.5-0.2c-1.9-0.8-5.3-1.2-10-1.2c-5.7,0-12.5,0.3-18.4,0.9l-0.4,0
		l-0.1,0c-0.9,0.2-1.6,1.1-1.6,2c0,1,0.7,1.8,1.6,2l0.5,0.1c5.9,0.5,12.8,0.9,18.4,0.9c4.7,0,8.1-0.4,10-1.2L968.3,1265z
		 M939.5,1264l-0.3,0c-0.2-0.1-0.4-0.3-0.4-0.5c0-0.2,0.1-0.4,0.4-0.5l0.3,0c5.8-0.5,12.7-0.9,18.3-0.9c5,0,7.6,0.5,9,0.9v1
		c-1.4,0.4-4,0.9-9,0.9C952.1,1264.8,945.3,1264.5,939.5,1264z M966.7,1259.6c0.3,0.3,0.7,0.4,1.1,0.2c3.2-2.4,5.9-5.3,7.7-8.4
		c0.1-0.2,0.2-0.4,0.4-0.6c0,0,0-0.1,0.1-0.1c0-0.1,0.1-0.2,0.1-0.3c0.2-1.2-0.4-2.4-1.5-2.8c-0.1,0-0.1,0-0.2,0l-2.1-0.4
		c-2.7-0.5-4.5-3.2-4-5.9c0.4-2.3,2.3-3.9,4.6-4.1c0.1,0,0.3,0,0.4,0c0,0,0.1,0,0.1,0c1.1-0.2,1.9-1,2.1-2c0.1-0.7,0-1.3-0.4-1.9
		c0,0-0.1-0.1-0.1-0.1c-0.2-0.2-0.4-0.4-0.6-0.5c-5.9-5.3-16.7-4.7-25.6,1.3c-4.9,3.3-8.5,7.7-10.3,12.5c-0.8,2.1-1.2,4.2-1.2,6.2
		c0,2.6,0.7,4.9,2,7c0.2,0.4,0.7,0.5,1.1,0.2c0.4-0.2,0.5-0.7,0.2-1.1c-4.3-6.6-0.3-17.2,9.1-23.6c8.4-5.7,18.4-6.3,23.7-1.5
		c0.1,0.1,0.3,0.3,0.4,0.4c0.1,0.2,0.2,0.4,0.1,0.7c-0.1,0.4-0.4,0.7-0.8,0.8c-0.1,0-0.3,0-0.4,0c-3,0.2-5.5,2.4-6,5.3
		c-0.7,3.6,1.7,7,5.2,7.7l2.1,0.4c0.4,0.2,0.6,0.6,0.5,1.1c0,0,0,0,0,0.1c-0.1,0.2-0.2,0.4-0.3,0.5c-1.8,3-4.3,5.7-7.3,8
		C966.5,1258.7,966.5,1259.2,966.7,1259.6z"/>
</g>
<g id="universo" class="st0">
	<rect x="1423" y="1005" class="st16" width="269" height="269"/>
	<line class="st17" x1="1445" y1="1223" x2="1659" y2="1223"/>
	<text transform="matrix(0.9167 0 0 1 1452.8052 1060.7168)" class="st1"><tspan x="0" y="0" class="st11 st3 st18">CONOCE EL UNIVERSO </tspan><tspan x="0" y="46" class="st11 st3 st18">MUSICAL DE TAPADO</tspan></text>
	<g class="st1">
		<path class="st11" d="M1572.5,1244.8c-13.6-1.2-14.6-2.2-15.9-15.8c-1.3,13.5-2.3,14.5-15.9,15.8c13.6,1.2,14.7,2.3,15.9,15.8
			C1557.9,1247,1558.9,1246,1572.5,1244.8z"/>
		<path class="st11" d="M1551,1258.4c-0.5,5.1-0.9,5.5-6.1,6c5.2,0.5,5.6,0.9,6.1,6c0.5-5.1,0.9-5.5,6.1-6
			C1551.8,1264,1551.4,1263.6,1551,1258.4z"/>
		<path class="st11" d="M1569.8,1256.4c0.3-3.3,0.6-3.6,3.9-3.9c-3.4-0.3-3.6-0.6-3.9-3.9c-0.3,3.3-0.6,3.6-3.9,3.9
			C1569.2,1252.8,1569.5,1253.1,1569.8,1256.4z"/>
	</g>
</g>
<g id="iconos" class="st0">
	<g id="instagram" class="st1">
		<path class="st9" d="M1691.6,464.2c0-13.8,11.2-25,25-25c13.5,0,25,10.7,25,25c0,13.9-11.1,25-25,25
			C1702.4,489.1,1691.7,477.6,1691.6,464.2z M1731.4,464.1c0-3,0-5.9,0-8.9c0-3.4-2.4-5.9-5.8-5.9c-6,0-12,0-18,0
			c-3.3,0-5.8,2.5-5.8,5.8c0,6,0,12,0,18c0,3.4,2.5,5.8,5.9,5.8c5.9,0,11.9,0,17.8,0c3.4,0,5.9-2.5,5.9-5.9
			C1731.4,470.1,1731.4,467.1,1731.4,464.1z"/>
		<path class="st12" d="M1731.4,464.1c0,3,0,5.9,0,8.9c0,3.4-2.5,5.9-5.9,5.9c-5.9,0-11.9,0-17.8,0c-3.4,0-5.9-2.4-5.9-5.8
			c0-6,0-12,0-18c0-3.3,2.5-5.8,5.8-5.8c6,0,12,0,18,0c3.4,0,5.8,2.5,5.8,5.9C1731.4,458.2,1731.4,461.2,1731.4,464.1z
			 M1704.7,461.1c0,0.2,0,0.4,0,0.6c0,3.8,0,7.5,0,11.3c0,1.8,1.2,3,3,3c5.9,0,11.8,0,17.8,0c1.8,0,3-1.2,3-3c0-3.8,0-7.6,0-11.4
			c0-0.2,0-0.3,0-0.5c-1.5,0-2.9,0-4.3,0c1.1,3.7,0.4,6.9-2.6,9.4c-2.6,2.1-5.7,2.4-8.6,0.8c-4.1-2.2-5.2-5.8-3.9-10.2
			C1707.6,461.1,1706.2,461.1,1704.7,461.1z M1711.4,464.2c0,2.9,2.3,5.2,5.2,5.2c2.9,0,5.2-2.3,5.2-5.2c0-2.9-2.4-5.2-5.2-5.2
			C1713.8,459,1711.4,461.3,1711.4,464.2z M1723,452.8c0,1.7,0,3.3,0,4.9c1.7,0,3.3,0,4.9,0c0-1.7,0-3.3,0-4.9
			C1726.3,452.8,1724.7,452.8,1723,452.8z"/>
		<path class="st11" d="M1704.7,461.1c1.5,0,2.9,0,4.3,0c-1.2,4.4-0.2,8,3.9,10.2c2.9,1.6,6,1.3,8.6-0.8c3.1-2.4,3.8-5.6,2.6-9.4
			c1.4,0,2.8,0,4.3,0c0,0.2,0,0.4,0,0.5c0,3.8,0,7.6,0,11.4c0,1.8-1.2,3-3,3c-5.9,0-11.8,0-17.8,0c-1.9,0-3-1.2-3-3
			c0-3.8,0-7.5,0-11.3C1704.7,461.6,1704.7,461.4,1704.7,461.1z"/>
		<path class="st11" d="M1711.4,464.2c0-2.9,2.3-5.2,5.2-5.2c2.9,0,5.2,2.4,5.2,5.2c0,2.9-2.4,5.2-5.2,5.2
			C1713.8,469.3,1711.4,467,1711.4,464.2z"/>
		<path class="st11" d="M1723,452.8c1.6,0,3.3,0,4.9,0c0,1.6,0,3.3,0,4.9c-1.6,0-3.3,0-4.9,0C1723,456.1,1723,454.5,1723,452.8z"/>
	</g>
	<g id="facebook" class="st1">
		<path class="st9" d="M1794.8,439.1c13.5,0,25,10.7,25,25c0,13.9-11.1,25-25,25c-14.3,0-25-11.6-25-25.1
			C1769.8,450.3,1781,439.2,1794.8,439.1z M1801.6,449.5c-0.1,0-0.1-0.1-0.2-0.1c-1.7,0-3.4-0.1-5.1,0c-2.8,0.2-4.6,1.7-5.2,4.4
			c-0.2,0.7-0.2,1.5-0.2,2.3c0,0.7,0,1.4,0,2.2c-1,0-2,0-2.9,0c0,2,0,3.9,0,5.9c1,0,1.9,0,2.9,0c0,5,0,9.8,0,14.7c2,0,3.9,0,5.9,0
			c0-4.9,0-9.8,0-14.8c1.5,0,2.9,0,4.4,0c0.2-2,0.4-3.9,0.5-5.9c-1.6,0-3.1,0-4.7,0c0-0.1,0-0.2,0-0.3c0-0.7,0-1.5,0-2.2
			c0-0.9,0.5-1.3,1.4-1.3c0.8,0,1.6,0,2.4,0c0.3,0,0.5,0,0.8,0C1801.6,452.8,1801.6,451.1,1801.6,449.5z"/>
		<path class="st11" d="M1801.6,449.5c0,1.6,0,3.3,0,5c-0.3,0-0.5,0-0.8,0c-0.8,0-1.6,0-2.4,0c-0.9,0-1.3,0.5-1.4,1.3
			c0,0.7,0,1.4,0,2.2c0,0.1,0,0.1,0,0.3c1.5,0,3.1,0,4.7,0c-0.2,2-0.4,4-0.5,5.9c-1.5,0-2.9,0-4.4,0c0,4.9,0,9.8,0,14.8
			c-2,0-3.9,0-5.9,0c0-4.9,0-9.8,0-14.7c-1,0-1.9,0-2.9,0c0-2,0-3.9,0-5.9c0.9,0,1.9,0,2.9,0c0-0.8,0-1.5,0-2.2c0-0.8,0-1.5,0.2-2.3
			c0.6-2.6,2.4-4.2,5.2-4.4c1.7-0.1,3.4,0,5.1,0C1801.5,449.4,1801.5,449.5,1801.6,449.5z"/>
	</g>
	<g id="twitter" class="st1">
		<path class="st11" d="M1872.9,438.1c14.3,0,26,11.7,26,26c0,14.3-11.7,26-26,26c-14.3,0-26-11.7-26-26
			C1846.9,449.8,1858.6,438.1,1872.9,438.1z M1848.9,464.2c0,13.2,10.7,24,24,24c13.3,0,24-10.8,24-24c0-13.3-10.7-23.9-24-23.9
			C1859.7,440.2,1848.9,450.9,1848.9,464.2z"/>
		<path class="st11" d="M1860,472.5c2.8,0.1,5.3-0.5,7.8-2.3c-1.2-0.1-2.2-0.4-3.1-1.1c-0.9-0.7-1.5-1.5-1.9-2.6c0.8,0,1.5,0,2.2,0
			c0,0,0-0.1,0-0.1c-2.6-0.8-4-2.5-4.2-5.2c0.8,0.2,1.5,0.4,2.2,0.6c0,0,0.1-0.1,0.1-0.1c-2.3-2-2.8-4.3-1.5-7.1
			c3,3.4,6.7,5.3,11.2,5.6c0-0.8-0.1-1.4,0-2.1c0.4-2.1,1.6-3.5,3.5-4.2c2-0.7,3.8-0.3,5.5,1c0.3,0.3,0.5,0.3,0.9,0.2
			c0.9-0.3,1.9-0.7,2.8-1c-0.4,1.1-1.1,2-2.1,2.7c0,0,0,0.1,0.1,0.1c0.9-0.2,1.8-0.5,2.7-0.7c-0.6,0.9-1.3,1.6-2.1,2.3
			c-0.3,0.3-0.5,0.5-0.5,1c0,7-4.6,13-11.3,14.8C1867.9,475.3,1863.8,474.8,1860,472.5z"/>
	</g>
	<g id="menu_1_" transform="translate(0,-952.36218)" class="st1">
		<path class="st11" d="M32.5,1393.4c-0.8,0-1.5,0.7-1.5,1.5c0,0.8,0.7,1.5,1.5,1.5h34c0.8,0,1.5-0.7,1.5-1.5c0-0.8-0.7-1.5-1.5-1.5
			H32.5z M32.5,1404.9c-0.8,0-1.5,0.7-1.5,1.5c0,0.8,0.7,1.5,1.5,1.5h34c0.8,0,1.5-0.7,1.5-1.5c0-0.8-0.7-1.5-1.5-1.5H32.5z
			 M32.5,1416.4c-0.8,0-1.5,0.7-1.5,1.5s0.7,1.5,1.5,1.5h34c0.8,0,1.5-0.7,1.5-1.5s-0.7-1.5-1.5-1.5H32.5z"/>
	</g>
</g>
</svg>
